<svg width="1541" height="242" viewBox="0 0 1541 242" fill="none" xmlns="http://www.w3.org/2000/svg">
<g clip-path="url(#clip0_5357_46006)">
<path fill-rule="evenodd" clip-rule="evenodd" d="M1452.94 242.845L1452.64 232.316V231.457L1451.88 204.35V203.49L1451.17 176.43L1451.12 175.571L1450.41 148.464L1450.36 147.604L1449.65 120.544L1449.6 119.685L1448.89 92.5782V91.7188L1448.13 64.6585V63.7991L1447.36 36.6926V35.8332L1446.84 16.5714L1423.3 -0.168457V242.845H1419.29V35.9679L1395.77 48.0951H1381.04V242.845H1375.71V153.74H1372.05V140.099H1368.7C1368.18 128.803 1358.86 119.806 1347.44 119.806C1336.01 119.806 1326.68 128.803 1326.16 140.099H1322.81V153.74H1319.16V242.845H1314.83V95.481H1308.68L1285.11 84.543V95.481V242.845H1281.78V55.9312L1275.38 57.8235V40.1665L1248.79 32.3171V65.6881L1242.39 67.5805V242.845H1240.2V139.268L1213.77 128.789V242.845H1210.93V108.273H1208.61V101.617H1186.83V108.273H1184.5V242.845H1182.98V188.78H1156.55V242.845H1154.73V154.836H1128.28V221.768H1126.44V123.578H1110.64V199.771H1108.82V41.9688H1082.38V242.845H1079.97V194.378H1076.97V189.394H1051.8V194.378H1048.8V242.845H1047.53V213.955H1023.25V242.845H1020.75V162.612H1022.08V157.4H1020.86L1005.01 115.597L989.156 157.4H987.922V162.612H989.25V242.845H986.687V179.365H985.554V175.64H984.5V173.267H968.406V175.64H967.352V179.365H966.203V242.845H964.59V182.57H940.734V242.845H937.112V195.432H930.953V242.845H927.607V168.817H918.289V242.845H915.52V194.744H899.658V163.773H883.797V194.744V242.845H881.509V150.601H879.338V143.8H855.422V150.601H850.178V143.8H838.469V150.601H836.297V173.211H798.445V242.845H795.423V129.782H768.984V160.373H755.773V242.845H751.077V193.509H749.62V189.709H733.562V193.509H730.056V189.709H722.188V193.509H720.719V242.845H718.581V89.373H715.015V85.1743H686.422V89.373H682.844V242.845H680.301V173.359H665.027V109.095H650.374V61.6528H628.562V242.845H623.367V140.972L618.588 139.147V134.093L613.808 131.86V123.531L597.203 113.545V124.106V130.981V134.502V141.706V242.845H594.576V179.296H592.807V171.757H591.335V162.937H586.719V171.757H575.594V179.296H573.828V242.845H571.083V132.244L569.56 133.006L568.561 133.526L567.732 133.949V122.75H566.072V101.394L548.766 95.6997V122.75H547.109V144.458L546.159 144.943L545.161 145.417L543.781 146.132V215.892H539.5V165.157H513.578V242.845H511.064V190.815L508.201 189.876V181.73L481.172 172.858V181.016L478.305 180.076V242.845H471.299V147.604L437.578 160.735V242.845H434.415V96.0708L416.5 108.821V242.845H413.127V132.054L377.219 120.493V242.845H373.129V140.423H342.594V242.845H339.769V170.229H337.878C336.554 163.853 330.907 159.059 324.134 159.059C317.366 159.059 311.714 163.853 310.388 170.229H308.5V242.845H305.497V57.7051H286.5V242.845H284.872V200.095H270.232V128.231H269.319V119.917H266.453V128.231H255.014V119.917H252.148V128.231H251.234V242.845H246.945V186.119H216.945V132.435H215.396V124.766H213.986V117.604H212.586V111.111L189 114.274V117.604H187.586V124.766H186.172V132.435H184.641V242.845H182.12V185.91H179.877V179.816H177.875V173.574H152.398V179.816H150.406V185.91H148.148V242.845H144.863V62.2944H117.422V242.845H114.807V157.92L84.5 160.671V242.845H82.8291V91.9467L62.8516 86.9489V242.845H60.728V143.93H52.2188V242.845H50.169V187.912H30.1875V207.573H15.1953V242.845H0.03125V262.093H1541.05V242.845H1535.84L1535.84 223.933V166.268H1531.17V188.893H1528.52V178.688H1505.23V188.893H1502.56V166.267H1497.91V188.893V223.932V242.845H1494.14V110.154H1490.37V105.282H1487.47V99.7918H1462.9V105.282H1459.98V110.154H1456.22V242.845H1452.94ZM1054.12 183.727H1074.64V189.333H1054.12V183.727Z" fill="#039D55" fill-opacity="0.05"/>
<path d="M900.086 243.92H883.367V163.345H900.086V243.92ZM884.225 243.063H899.228V164.202H884.225V243.063Z" fill="white" fill-opacity="0.5"/>
<path d="M344.761 140.423H343.906V244.206H344.761V140.423Z" fill="white" fill-opacity="0.5"/>
<path d="M351.557 140.423H350.656V244.206H351.557V140.423Z" fill="white" fill-opacity="0.5"/>
<path d="M358.315 140.423H357.414V244.206H358.315V140.423Z" fill="white" fill-opacity="0.5"/>
<path d="M365.073 140.423H364.172V244.206H365.073V140.423Z" fill="white" fill-opacity="0.5"/>
<path d="M371.823 140.423H370.922V244.206H371.823V140.423Z" fill="white" fill-opacity="0.5"/>
<path d="M1247.73 69.5495V71.0635L1276.42 62.5823V61.0684L1247.73 69.5495Z" fill="white" fill-opacity="0.5"/>
<path d="M1247.73 76.3869V77.9009L1276.42 69.4197V67.9058L1247.73 76.3869Z" fill="white" fill-opacity="0.5"/>
<path d="M1247.73 83.2238V84.7378L1276.42 76.2567V74.7427L1247.73 83.2238Z" fill="white" fill-opacity="0.5"/>
<path d="M1247.73 90.0607V91.5747L1276.42 83.0935V81.5796L1247.73 90.0607Z" fill="white" fill-opacity="0.5"/>
<path d="M1247.73 96.8986V98.4121L1276.42 89.931V88.417L1247.73 96.8986Z" fill="white" fill-opacity="0.5"/>
<path d="M1247.73 103.735V105.249L1276.42 96.7679V95.2539L1247.73 103.735Z" fill="white" fill-opacity="0.5"/>
<path d="M1247.73 110.572V112.086L1276.42 103.605V102.091L1247.73 110.572Z" fill="white" fill-opacity="0.5"/>
<path d="M1247.73 117.409V118.923L1276.42 110.442V108.928L1247.73 117.409Z" fill="white" fill-opacity="0.5"/>
<path d="M1247.73 124.246V125.76L1276.42 117.279V115.765L1247.73 124.246Z" fill="white" fill-opacity="0.5"/>
<path d="M1247.73 131.084V132.598L1276.42 124.116V122.602L1247.73 131.084Z" fill="white" fill-opacity="0.5"/>
<path d="M1247.73 137.921V139.435L1276.42 130.953V129.439L1247.73 137.921Z" fill="white" fill-opacity="0.5"/>
<path d="M1247.73 144.757V146.271L1276.42 137.79V136.276L1247.73 144.757Z" fill="white" fill-opacity="0.5"/>
<path d="M1247.73 151.595V153.109L1276.42 144.628V143.113L1247.73 151.595Z" fill="white" fill-opacity="0.5"/>
<path d="M1247.73 158.432V159.946L1276.42 151.465V149.95L1247.73 158.432Z" fill="white" fill-opacity="0.5"/>
<path d="M1247.73 165.269V166.783L1276.42 158.302V156.788L1247.73 165.269Z" fill="white" fill-opacity="0.5"/>
<path d="M1247.73 172.106V173.62L1276.42 165.139V163.625L1247.73 172.106Z" fill="white" fill-opacity="0.5"/>
<path d="M1247.73 178.943V180.457L1276.42 171.976V170.462L1247.73 178.943Z" fill="white" fill-opacity="0.5"/>
<path d="M1247.73 185.78V187.294L1276.42 178.813V177.299L1247.73 185.78Z" fill="white" fill-opacity="0.5"/>
<path d="M1247.73 192.617V194.131L1276.42 185.65V184.136L1247.73 192.617Z" fill="white" fill-opacity="0.5"/>
<path d="M1247.73 199.454V200.968L1276.42 192.487V190.973L1247.73 199.454Z" fill="white" fill-opacity="0.5"/>
<path d="M1247.73 206.291V207.805L1276.42 199.324V197.81L1247.73 206.291Z" fill="white" fill-opacity="0.5"/>
<path d="M1247.73 213.129V214.642L1276.42 206.161V204.647L1247.73 213.129Z" fill="white" fill-opacity="0.5"/>
<path d="M1247.73 219.966V221.479L1276.42 212.998V211.484L1247.73 219.966Z" fill="white" fill-opacity="0.5"/>
<path d="M1247.73 226.803V228.316L1276.42 219.835V218.321L1247.73 226.803Z" fill="white" fill-opacity="0.5"/>
<path d="M1247.73 233.639V235.154L1276.42 226.672V225.158L1247.73 233.639Z" fill="white" fill-opacity="0.5"/>
<path d="M1247.73 240.477V241.99L1276.42 233.509V231.995L1247.73 240.477Z" fill="white" fill-opacity="0.5"/>
<path d="M1247.73 247.314V248.828L1276.42 240.347V238.833L1247.73 247.314Z" fill="white" fill-opacity="0.5"/>
<path d="M49.6537 189.477H30.7031V189.848H49.6537V189.477Z" fill="white" fill-opacity="0.5"/>
<path d="M49.0632 192.65H31.2969V192.873H49.0632V192.65Z" fill="white" fill-opacity="0.5"/>
<path d="M49.6537 195.677H30.7031V196.049H49.6537V195.677Z" fill="white" fill-opacity="0.5"/>
<path d="M49.0632 198.85H31.2969V199.073H49.0632V198.85Z" fill="white" fill-opacity="0.5"/>
<path d="M49.6537 201.874H30.7031V202.246H49.6537V201.874Z" fill="white" fill-opacity="0.5"/>
<path d="M49.0632 205.046H31.2969V205.269H49.0632V205.046Z" fill="white" fill-opacity="0.5"/>
<path d="M49.6537 208.075H30.7031V208.446H49.6537V208.075Z" fill="white" fill-opacity="0.5"/>
<path d="M49.0632 211.247H31.2969V211.469H49.0632V211.247Z" fill="white" fill-opacity="0.5"/>
<path d="M49.6537 214.271H30.7031V214.642H49.6537V214.271Z" fill="white" fill-opacity="0.5"/>
<path d="M49.0632 217.448H31.2969V217.671H49.0632V217.448Z" fill="white" fill-opacity="0.5"/>
<path d="M49.6537 220.472H30.7031V220.843H49.6537V220.472Z" fill="white" fill-opacity="0.5"/>
<path d="M49.0632 223.644H31.2969V223.867H49.0632V223.644Z" fill="white" fill-opacity="0.5"/>
<path d="M49.6537 226.672H30.7031V227.044H49.6537V226.672Z" fill="white" fill-opacity="0.5"/>
<path d="M49.0632 229.845H31.2969V230.068H49.0632V229.845Z" fill="white" fill-opacity="0.5"/>
<path d="M49.6537 232.869H30.7031V233.24H49.6537V232.869Z" fill="white" fill-opacity="0.5"/>
<path d="M49.0632 236.041H31.2969V236.264H49.0632V236.041Z" fill="white" fill-opacity="0.5"/>
<path d="M49.6537 239.069H30.7031V239.441H49.6537V239.069Z" fill="white" fill-opacity="0.5"/>
<path d="M80.2 95.7275H64.8906V96.3219H80.2V95.7275Z" fill="white" fill-opacity="0.5"/>
<path d="M80.2 102.267H64.8906V102.862H80.2V102.267Z" fill="white" fill-opacity="0.5"/>
<path d="M80.2 108.807H64.8906V109.401H80.2V108.807Z" fill="white" fill-opacity="0.5"/>
<path d="M80.2 115.347H64.8906V115.941H80.2V115.347Z" fill="white" fill-opacity="0.5"/>
<path d="M80.2 121.887H64.8906V122.481H80.2V121.887Z" fill="white" fill-opacity="0.5"/>
<path d="M80.2 128.426H64.8906V129.021H80.2V128.426Z" fill="white" fill-opacity="0.5"/>
<path d="M80.2 134.966H64.8906V135.561H80.2V134.966Z" fill="white" fill-opacity="0.5"/>
<path d="M80.2 141.506H64.8906V142.101H80.2V141.506Z" fill="white" fill-opacity="0.5"/>
<path d="M80.2 148.046H64.8906V148.641H80.2V148.046Z" fill="white" fill-opacity="0.5"/>
<path d="M80.2 154.585H64.8906V155.18H80.2V154.585Z" fill="white" fill-opacity="0.5"/>
<path d="M80.2 161.125H64.8906V161.72H80.2V161.125Z" fill="white" fill-opacity="0.5"/>
<path d="M80.2 167.666H64.8906V168.26H80.2V167.666Z" fill="white" fill-opacity="0.5"/>
<path d="M80.2 174.206H64.8906V174.8H80.2V174.206Z" fill="white" fill-opacity="0.5"/>
<path d="M80.2 180.745H64.8906V181.339H80.2V180.745Z" fill="white" fill-opacity="0.5"/>
<path d="M80.2 187.285H64.8906V187.879H80.2V187.285Z" fill="white" fill-opacity="0.5"/>
<path d="M80.2 193.825H64.8906V194.419H80.2V193.825Z" fill="white" fill-opacity="0.5"/>
<path d="M80.2 200.365H64.8906V200.96H80.2V200.365Z" fill="white" fill-opacity="0.5"/>
<path d="M80.2 206.904H64.8906V207.499H80.2V206.904Z" fill="white" fill-opacity="0.5"/>
<path d="M80.2 213.444H64.8906V214.039H80.2V213.444Z" fill="white" fill-opacity="0.5"/>
<path d="M80.2 219.984H64.8906V220.578H80.2V219.984Z" fill="white" fill-opacity="0.5"/>
<path d="M80.2 226.524H64.8906V227.118H80.2V226.524Z" fill="white" fill-opacity="0.5"/>
<path d="M80.2 233.063H64.8906V233.658H80.2V233.063Z" fill="white" fill-opacity="0.5"/>
<path d="M113.928 164.693H85.3906V164.99H113.928V164.693Z" fill="white" fill-opacity="0.5"/>
<path d="M113.928 170.192H85.3906V170.489H113.928V170.192Z" fill="white" fill-opacity="0.5"/>
<path d="M113.928 175.692H85.3906V175.989H113.928V175.692Z" fill="white" fill-opacity="0.5"/>
<path d="M113.928 181.191H85.3906V181.488H113.928V181.191Z" fill="white" fill-opacity="0.5"/>
<path d="M113.928 186.69H85.3906V186.987H113.928V186.69Z" fill="white" fill-opacity="0.5"/>
<path d="M113.928 192.189H85.3906V192.487H113.928V192.189Z" fill="white" fill-opacity="0.5"/>
<path d="M113.928 197.689H85.3906V197.986H113.928V197.689Z" fill="white" fill-opacity="0.5"/>
<path d="M113.928 203.188H85.3906V203.486H113.928V203.188Z" fill="white" fill-opacity="0.5"/>
<path d="M113.928 208.688H85.3906V208.985H113.928V208.688Z" fill="white" fill-opacity="0.5"/>
<path d="M113.928 214.187H85.3906V214.484H113.928V214.187Z" fill="white" fill-opacity="0.5"/>
<path d="M113.928 219.687H85.3906V219.984H113.928V219.687Z" fill="white" fill-opacity="0.5"/>
<path d="M113.928 225.186H85.3906V225.483H113.928V225.186Z" fill="white" fill-opacity="0.5"/>
<path d="M113.928 230.686H85.3906V230.983H113.928V230.686Z" fill="white" fill-opacity="0.5"/>
<path d="M113.928 236.184H85.3906V236.482H113.928V236.184Z" fill="white" fill-opacity="0.5"/>
<path d="M113.928 241.684H85.3906V241.982H113.928V241.684Z" fill="white" fill-opacity="0.5"/>
<path d="M141.131 66.2471H118.391V66.7953H141.131V66.2471Z" fill="white" fill-opacity="0.5"/>
<path d="M144.553 72.6382H121.812V73.1864H144.553V72.6382Z" fill="white" fill-opacity="0.5"/>
<path d="M141.131 86.9072H118.391V87.4554H141.131V86.9072Z" fill="white" fill-opacity="0.5"/>
<path d="M144.553 93.2979H121.812V93.8465H144.553V93.2979Z" fill="white" fill-opacity="0.5"/>
<path d="M141.131 107.567H118.391V108.115H141.131V107.567Z" fill="white" fill-opacity="0.5"/>
<path d="M144.553 113.958H121.812V114.506H144.553V113.958Z" fill="white" fill-opacity="0.5"/>
<path d="M157.785 188.474H149.609V189.663H157.785V188.474Z" fill="white" fill-opacity="0.5"/>
<path d="M180.518 192.338H172.344V193.527H180.518V192.338Z" fill="white" fill-opacity="0.5"/>
<path d="M164.768 199.068H151.391V199.877H164.768V199.068Z" fill="white" fill-opacity="0.5"/>
<path d="M180.08 207.392H166.703V208.2H180.08V207.392Z" fill="white" fill-opacity="0.5"/>
<path d="M164.033 220.769H150.656V221.577H164.033V220.769Z" fill="white" fill-opacity="0.5"/>
<path d="M173.689 234.146H160.312V234.954H173.689V234.146Z" fill="white" fill-opacity="0.5"/>
<path d="M214.865 144.924H205.203V146.113H214.865V144.924Z" fill="white" fill-opacity="0.5"/>
<path d="M217.179 244.459H184.398V132.197H217.179V244.459ZM184.874 243.982H216.703V132.672H184.874V243.982Z" fill="white" fill-opacity="0.5"/>
<path d="M196.427 135.858H186.766V137.047H196.427V135.858Z" fill="white" fill-opacity="0.5"/>
<path d="M203.27 163.206H193.609V164.395H203.27V163.206Z" fill="white" fill-opacity="0.5"/>
<path d="M210.396 195.162H200.734V196.351H210.396V195.162Z" fill="white" fill-opacity="0.5"/>
<path d="M200.739 218.051H191.078V219.24H200.739V218.051Z" fill="white" fill-opacity="0.5"/>
<path d="M230.922 188.841H217.984V187.75H230.683L230.922 188.841Z" fill="white" fill-opacity="0.5"/>
<path d="M232.016 194.549H217.984V193.458H231.826L232.016 194.549Z" fill="white" fill-opacity="0.5"/>
<path d="M233.156 200.304H217.984V199.161H232.919L233.156 200.304Z" fill="white" fill-opacity="0.5"/>
<path d="M234.25 206.012H217.984V204.916H234.013L234.25 206.012Z" fill="white" fill-opacity="0.5"/>
<path d="M235.344 211.721H217.984V210.625H235.107L235.344 211.721Z" fill="white" fill-opacity="0.5"/>
<path d="M236.438 217.476H217.984V216.333H236.247L236.438 217.476Z" fill="white" fill-opacity="0.5"/>
<path d="M237.58 223.184H217.984V222.088H237.341L237.58 223.184Z" fill="white" fill-opacity="0.5"/>
<path d="M238.674 228.887H217.984V227.796H238.435L238.674 228.887Z" fill="white" fill-opacity="0.5"/>
<path d="M239.768 234.643H217.984V233.504H239.577L239.768 234.643Z" fill="white" fill-opacity="0.5"/>
<path d="M240.862 240.351H217.984V239.213H240.672L240.862 240.351Z" fill="white" fill-opacity="0.5"/>
<path d="M268.818 130.21H253.062V130.805H268.818V130.21Z" fill="white" fill-opacity="0.5"/>
<path d="M268.818 137.047H253.062V137.642H268.818V137.047Z" fill="white" fill-opacity="0.5"/>
<path d="M268.818 143.884H253.062V144.478H268.818V143.884Z" fill="white" fill-opacity="0.5"/>
<path d="M268.818 150.722H253.062V151.316H268.818V150.722Z" fill="white" fill-opacity="0.5"/>
<path d="M268.818 157.559H253.062V158.153H268.818V157.559Z" fill="white" fill-opacity="0.5"/>
<path d="M268.818 164.395H253.062V164.99H268.818V164.395Z" fill="white" fill-opacity="0.5"/>
<path d="M268.818 171.232H253.062V171.827H268.818V171.232Z" fill="white" fill-opacity="0.5"/>
<path d="M268.818 178.07H253.062V178.665H268.818V178.07Z" fill="white" fill-opacity="0.5"/>
<path d="M268.818 184.907H253.062V185.501H268.818V184.907Z" fill="white" fill-opacity="0.5"/>
<path d="M268.818 191.744H253.062V192.338H268.818V191.744Z" fill="white" fill-opacity="0.5"/>
<path d="M268.818 198.581H253.062V199.175H268.818V198.581Z" fill="white" fill-opacity="0.5"/>
<path d="M268.818 205.418H253.062V206.012H268.818V205.418Z" fill="white" fill-opacity="0.5"/>
<path d="M268.818 212.255H253.062V212.85H268.818V212.255Z" fill="white" fill-opacity="0.5"/>
<path d="M268.818 219.092H253.062V219.687H268.818V219.092Z" fill="white" fill-opacity="0.5"/>
<path d="M268.818 225.929H253.062V226.524H268.818V225.929Z" fill="white" fill-opacity="0.5"/>
<path d="M268.818 232.766H253.062V233.36H268.818V232.766Z" fill="white" fill-opacity="0.5"/>
<path d="M268.818 239.603H253.062V240.197H268.818V239.603Z" fill="white" fill-opacity="0.5"/>
<path d="M297.332 60.5015H294.656V65.8522H297.332V60.5015Z" fill="white" fill-opacity="0.5"/>
<path d="M297.332 67.4873H294.656V72.8381H297.332V67.4873Z" fill="white" fill-opacity="0.5"/>
<path d="M297.332 74.4731H294.656V79.8239H297.332V74.4731Z" fill="white" fill-opacity="0.5"/>
<path d="M297.332 81.4585H294.656V86.8093H297.332V81.4585Z" fill="white" fill-opacity="0.5"/>
<path d="M297.332 88.4443H294.656V93.7951H297.332V88.4443Z" fill="white" fill-opacity="0.5"/>
<path d="M297.332 95.4302H294.656V100.781H297.332V95.4302Z" fill="white" fill-opacity="0.5"/>
<path d="M297.332 102.416H294.656V107.766H297.332V102.416Z" fill="white" fill-opacity="0.5"/>
<path d="M297.332 109.402H294.656V114.753H297.332V109.402Z" fill="white" fill-opacity="0.5"/>
<path d="M297.332 116.387H294.656V121.738H297.332V116.387Z" fill="white" fill-opacity="0.5"/>
<path d="M297.332 123.373H294.656V128.723H297.332V123.373Z" fill="white" fill-opacity="0.5"/>
<path d="M297.332 130.359H294.656V135.71H297.332V130.359Z" fill="white" fill-opacity="0.5"/>
<path d="M297.332 137.344H294.656V142.695H297.332V137.344Z" fill="white" fill-opacity="0.5"/>
<path d="M297.332 144.33H294.656V149.681H297.332V144.33Z" fill="white" fill-opacity="0.5"/>
<path d="M297.332 151.316H294.656V156.667H297.332V151.316Z" fill="white" fill-opacity="0.5"/>
<path d="M297.332 158.301H294.656V163.652H297.332V158.301Z" fill="white" fill-opacity="0.5"/>
<path d="M297.332 165.287H294.656V170.638H297.332V165.287Z" fill="white" fill-opacity="0.5"/>
<path d="M297.332 172.273H294.656V177.624H297.332V172.273Z" fill="white" fill-opacity="0.5"/>
<path d="M297.332 179.259H294.656V184.61H297.332V179.259Z" fill="white" fill-opacity="0.5"/>
<path d="M297.332 186.244H294.656V191.595H297.332V186.244Z" fill="white" fill-opacity="0.5"/>
<path d="M297.332 193.23H294.656V198.581H297.332V193.23Z" fill="white" fill-opacity="0.5"/>
<path d="M297.332 200.215H294.656V205.566H297.332V200.215Z" fill="white" fill-opacity="0.5"/>
<path d="M297.332 207.202H294.656V212.552H297.332V207.202Z" fill="white" fill-opacity="0.5"/>
<path d="M297.332 214.187H294.656V219.538H297.332V214.187Z" fill="white" fill-opacity="0.5"/>
<path d="M297.332 221.173H294.656V226.524H297.332V221.173Z" fill="white" fill-opacity="0.5"/>
<path d="M297.332 228.159H294.656V233.509H297.332V228.159Z" fill="white" fill-opacity="0.5"/>
<path d="M297.332 235.145H294.656V240.495H297.332V235.145Z" fill="white" fill-opacity="0.5"/>
<path d="M396.529 130.911H377.219V131.102H396.529V130.911Z" fill="white" fill-opacity="0.5"/>
<path d="M413.122 155.264H393.766V155.501H413.122V155.264Z" fill="white" fill-opacity="0.5"/>
<path d="M399.716 196.119H377.219V196.309H399.716V196.119Z" fill="white" fill-opacity="0.5"/>
<path d="M413.129 229.793H393.391V229.984H413.129V229.793Z" fill="white" fill-opacity="0.5"/>
<path d="M461.359 165.394H437.578V166.393H461.359V165.394Z" fill="white" fill-opacity="0.5"/>
<path d="M469.862 170.146H445.289V171.135H469.862V170.146Z" fill="white" fill-opacity="0.5"/>
<path d="M464.511 177.48H439.938V178.469H464.511V177.48Z" fill="white" fill-opacity="0.5"/>
<path d="M468.479 192.542H443.906V193.532H468.479V192.542Z" fill="white" fill-opacity="0.5"/>
<path d="M463.917 213.152H439.344V214.141H463.917V213.152Z" fill="white" fill-opacity="0.5"/>
<path d="M468.276 227.62H443.703V228.61H468.276V227.62Z" fill="white" fill-opacity="0.5"/>
<path d="M464.511 238.122H439.938V239.111H464.511V238.122Z" fill="white" fill-opacity="0.5"/>
<path d="M539.742 257.57H513.344V164.918H539.742V257.57ZM513.819 257.094H539.266V165.394H513.819V257.094Z" fill="white" fill-opacity="0.5"/>
<path d="M535.59 167.963H516.156V168.344H535.59V167.963Z" fill="white" fill-opacity="0.5"/>
<path d="M536.929 173.527H518.297V173.908H536.929V173.527Z" fill="white" fill-opacity="0.5"/>
<path d="M535.59 179.853H516.156V180.234H535.59V179.853Z" fill="white" fill-opacity="0.5"/>
<path d="M536.929 185.417H518.297V185.799H536.929V185.417Z" fill="white" fill-opacity="0.5"/>
<path d="M535.59 191.744H516.156V192.125H535.59V191.744Z" fill="white" fill-opacity="0.5"/>
<path d="M536.929 197.308H518.297V197.689H536.929V197.308Z" fill="white" fill-opacity="0.5"/>
<path d="M535.59 203.634H516.156V204.016H535.59V203.634Z" fill="white" fill-opacity="0.5"/>
<path d="M536.929 209.199H518.297V209.58H536.929V209.199Z" fill="white" fill-opacity="0.5"/>
<path d="M535.59 215.525H516.156V215.906H535.59V215.525Z" fill="white" fill-opacity="0.5"/>
<path d="M536.929 221.089H518.297V221.47H536.929V221.089Z" fill="white" fill-opacity="0.5"/>
<path d="M535.59 227.416H516.156V227.797H535.59V227.416Z" fill="white" fill-opacity="0.5"/>
<path d="M536.929 232.98H518.297V233.361H536.929V232.98Z" fill="white" fill-opacity="0.5"/>
<path d="M535.59 239.306H516.156V239.687H535.59V239.306Z" fill="white" fill-opacity="0.5"/>
<path d="M546.155 144.943V241.113H545.156V145.417L546.155 144.943Z" fill="white" fill-opacity="0.5"/>
<path d="M552.014 141.947V241.113H551.016V142.467L552.014 141.947Z" fill="white" fill-opacity="0.5"/>
<path d="M557.858 138.952V241.113H556.859V139.471L557.858 138.952Z" fill="white" fill-opacity="0.5"/>
<path d="M563.709 136.002V241.113H562.711V136.522L563.709 136.002Z" fill="white" fill-opacity="0.5"/>
<path d="M569.561 133.006V241.113H568.562V133.526L569.561 133.006Z" fill="white" fill-opacity="0.5"/>
<path d="M585.998 182.036H575.297V182.631H585.998V182.036Z" fill="white" fill-opacity="0.5"/>
<path d="M593.92 185.999H583.219V186.593H593.92V185.999Z" fill="white" fill-opacity="0.5"/>
<path d="M585.998 192.44H575.297V193.035H585.998V192.44Z" fill="white" fill-opacity="0.5"/>
<path d="M593.92 196.403H583.219V196.997H593.92V196.403Z" fill="white" fill-opacity="0.5"/>
<path d="M585.998 202.844H575.297V203.439H585.998V202.844Z" fill="white" fill-opacity="0.5"/>
<path d="M593.92 206.807H583.219V207.401H593.92V206.807Z" fill="white" fill-opacity="0.5"/>
<path d="M585.998 213.249H575.297V213.844H585.998V213.249Z" fill="white" fill-opacity="0.5"/>
<path d="M593.92 217.211H583.219V217.806H593.92V217.211Z" fill="white" fill-opacity="0.5"/>
<path d="M585.998 223.653H575.297V224.248H585.998V223.653Z" fill="white" fill-opacity="0.5"/>
<path d="M593.92 227.615H583.219V228.21H593.92V227.615Z" fill="white" fill-opacity="0.5"/>
<path d="M585.998 234.058H575.297V234.652H585.998V234.058Z" fill="white" fill-opacity="0.5"/>
<path d="M593.92 238.02H583.219V238.614H593.92V238.02Z" fill="white" fill-opacity="0.5"/>
<path d="M635.939 65.5088H630.391V66.5023H635.939V65.5088Z" fill="white" fill-opacity="0.5"/>
<path d="M647.032 73.0378H641.484V74.0318H647.032V73.0378Z" fill="white" fill-opacity="0.5"/>
<path d="M646.831 98.208H632.562V99.2015H646.831V98.208Z" fill="white" fill-opacity="0.5"/>
<path d="M659.512 114.943H650.594V115.565H659.512V114.943Z" fill="white" fill-opacity="0.5"/>
<path d="M666.458 128.417H631.578V129.04H666.458V128.417Z" fill="white" fill-opacity="0.5"/>
<path d="M656.347 144.958H631.773V145.394H656.347V144.958Z" fill="white" fill-opacity="0.5"/>
<path d="M664.27 161.205H653.766V161.641H664.27V161.205Z" fill="white" fill-opacity="0.5"/>
<path d="M647.629 155.654H637.125V156.09H647.629V155.654Z" fill="white" fill-opacity="0.5"/>
<path d="M661.305 174.679H631.578V175.115H661.305V174.679Z" fill="white" fill-opacity="0.5"/>
<path d="M679.73 183.397H663.875V183.833H679.73V183.397Z" fill="white" fill-opacity="0.5"/>
<path d="M667.054 192.324H632.172V192.761H667.054V192.324Z" fill="white" fill-opacity="0.5"/>
<path d="M678.945 202.032H644.062V202.468H678.945V202.032Z" fill="white" fill-opacity="0.5"/>
<path d="M666.054 218.878H631.172V219.315H666.054V218.878Z" fill="white" fill-opacity="0.5"/>
<path d="M678.351 229.38H643.469V229.817H678.351V229.38Z" fill="white" fill-opacity="0.5"/>
<path d="M675.366 238.103H634.344V238.54H675.366V238.103Z" fill="white" fill-opacity="0.5"/>
<path d="M715.603 92.2627H684.688V93.0566H715.603V92.2627Z" fill="white" fill-opacity="0.5"/>
<path d="M715.603 97.8086H684.688V98.6025H715.603V97.8086Z" fill="white" fill-opacity="0.5"/>
<path d="M715.603 103.354H684.688V104.148H715.603V103.354Z" fill="white" fill-opacity="0.5"/>
<path d="M715.603 108.9H684.688V109.694H715.603V108.9Z" fill="white" fill-opacity="0.5"/>
<path d="M715.603 114.446H684.688V115.24H715.603V114.446Z" fill="white" fill-opacity="0.5"/>
<path d="M715.603 119.991H684.688V120.786H715.603V119.991Z" fill="white" fill-opacity="0.5"/>
<path d="M715.603 125.538H684.688V126.332H715.603V125.538Z" fill="white" fill-opacity="0.5"/>
<path d="M715.603 131.083H684.688V131.877H715.603V131.083Z" fill="white" fill-opacity="0.5"/>
<path d="M715.603 136.629H684.688V137.423H715.603V136.629Z" fill="white" fill-opacity="0.5"/>
<path d="M715.603 142.175H684.688V142.969H715.603V142.175Z" fill="white" fill-opacity="0.5"/>
<path d="M715.603 147.72H684.688V148.515H715.603V147.72Z" fill="white" fill-opacity="0.5"/>
<path d="M715.603 153.266H684.688V154.06H715.603V153.266Z" fill="white" fill-opacity="0.5"/>
<path d="M715.603 158.812H684.688V159.606H715.603V158.812Z" fill="white" fill-opacity="0.5"/>
<path d="M715.603 164.358H684.688V165.153H715.603V164.358Z" fill="white" fill-opacity="0.5"/>
<path d="M715.603 169.904H684.688V170.698H715.603V169.904Z" fill="white" fill-opacity="0.5"/>
<path d="M715.603 175.45H684.688V176.244H715.603V175.45Z" fill="white" fill-opacity="0.5"/>
<path d="M715.603 180.996H684.688V181.79H715.603V180.996Z" fill="white" fill-opacity="0.5"/>
<path d="M715.603 186.542H684.688V187.335H715.603V186.542Z" fill="white" fill-opacity="0.5"/>
<path d="M715.603 192.087H684.688V192.882H715.603V192.087Z" fill="white" fill-opacity="0.5"/>
<path d="M715.603 197.634H684.688V198.428H715.603V197.634Z" fill="white" fill-opacity="0.5"/>
<path d="M715.603 203.179H684.688V203.974H715.603V203.179Z" fill="white" fill-opacity="0.5"/>
<path d="M715.603 208.725H684.688V209.519H715.603V208.725Z" fill="white" fill-opacity="0.5"/>
<path d="M715.603 214.271H684.688V215.064H715.603V214.271Z" fill="white" fill-opacity="0.5"/>
<path d="M715.603 219.817H684.688V220.611H715.603V219.817Z" fill="white" fill-opacity="0.5"/>
<path d="M850.529 151.71H838.109V143.444H850.529V151.71ZM838.82 150.996H849.818V144.157H838.82V150.996Z" fill="white" fill-opacity="0.5"/>
<path d="M879.69 151.71H855.062V143.444H879.69V151.71ZM855.774 150.996H878.979V144.157H855.774V150.996Z" fill="white" fill-opacity="0.5"/>
<path d="M881.859 255.469H835.938V150.243H881.859V255.469ZM836.649 254.755H881.148V150.957H836.649V254.755Z" fill="white" fill-opacity="0.5"/>
<path d="M715.603 225.363H684.688V226.157H715.603V225.363Z" fill="white" fill-opacity="0.5"/>
<path d="M849.059 154.887H839.547V156.271H849.059V154.887Z" fill="white" fill-opacity="0.5"/>
<path d="M878.244 154.887H852.828V156.271H878.244V154.887Z" fill="white" fill-opacity="0.5"/>
<path d="M849.059 162.914H839.547V164.297H849.059V162.914Z" fill="white" fill-opacity="0.5"/>
<path d="M878.244 162.914H852.828V164.297H878.244V162.914Z" fill="white" fill-opacity="0.5"/>
<path d="M849.059 170.94H839.547V172.324H849.059V170.94Z" fill="white" fill-opacity="0.5"/>
<path d="M878.244 170.94H852.828V172.324H878.244V170.94Z" fill="white" fill-opacity="0.5"/>
<path d="M849.059 178.966H839.547V180.35H849.059V178.966Z" fill="white" fill-opacity="0.5"/>
<path d="M878.244 178.966H852.828V180.35H878.244V178.966Z" fill="white" fill-opacity="0.5"/>
<path d="M849.059 186.993H839.547V188.377H849.059V186.993Z" fill="white" fill-opacity="0.5"/>
<path d="M878.244 186.993H852.828V188.377H878.244V186.993Z" fill="white" fill-opacity="0.5"/>
<path d="M849.059 195.018H839.547V196.402H849.059V195.018Z" fill="white" fill-opacity="0.5"/>
<path d="M878.244 195.018H852.828V196.402H878.244V195.018Z" fill="white" fill-opacity="0.5"/>
<path d="M849.059 203.044H839.547V204.429H849.059V203.044Z" fill="white" fill-opacity="0.5"/>
<path d="M878.244 203.044H852.828V204.429H878.244V203.044Z" fill="white" fill-opacity="0.5"/>
<path d="M849.059 211.071H839.547V212.455H849.059V211.071Z" fill="white" fill-opacity="0.5"/>
<path d="M878.244 211.071H852.828V212.455H878.244V211.071Z" fill="white" fill-opacity="0.5"/>
<path d="M849.059 219.097H839.547V220.481H849.059V219.097Z" fill="white" fill-opacity="0.5"/>
<path d="M878.244 219.097H852.828V220.481H878.244V219.097Z" fill="white" fill-opacity="0.5"/>
<path d="M849.059 227.124H839.547V228.507H849.059V227.124Z" fill="white" fill-opacity="0.5"/>
<path d="M878.244 227.124H852.828V228.507H878.244V227.124Z" fill="white" fill-opacity="0.5"/>
<path d="M849.059 235.149H839.547V236.533H849.059V235.149Z" fill="white" fill-opacity="0.5"/>
<path d="M878.244 235.149H852.828V236.533H878.244V235.149Z" fill="white" fill-opacity="0.5"/>
<path d="M946.916 184.711H942.359V186.69H946.916V184.711Z" fill="white" fill-opacity="0.5"/>
<path d="M954.947 184.711H950.391V186.69H954.947V184.711Z" fill="white" fill-opacity="0.5"/>
<path d="M962.963 184.711H958.406V186.69H962.963V184.711Z" fill="white" fill-opacity="0.5"/>
<path d="M946.916 190.258H942.359V192.236H946.916V190.258Z" fill="white" fill-opacity="0.5"/>
<path d="M954.947 190.258H950.391V192.236H954.947V190.258Z" fill="white" fill-opacity="0.5"/>
<path d="M962.963 190.258H958.406V192.236H962.963V190.258Z" fill="white" fill-opacity="0.5"/>
<path d="M946.916 195.803H942.359V197.781H946.916V195.803Z" fill="white" fill-opacity="0.5"/>
<path d="M954.947 195.803H950.391V197.781H954.947V195.803Z" fill="white" fill-opacity="0.5"/>
<path d="M962.963 195.803H958.406V197.781H962.963V195.803Z" fill="white" fill-opacity="0.5"/>
<path d="M946.916 201.349H942.359V203.328H946.916V201.349Z" fill="white" fill-opacity="0.5"/>
<path d="M954.947 201.349H950.391V203.328H954.947V201.349Z" fill="white" fill-opacity="0.5"/>
<path d="M962.963 201.349H958.406V203.328H962.963V201.349Z" fill="white" fill-opacity="0.5"/>
<path d="M946.916 206.895H942.359V208.873H946.916V206.895Z" fill="white" fill-opacity="0.5"/>
<path d="M954.947 206.895H950.391V208.873H954.947V206.895Z" fill="white" fill-opacity="0.5"/>
<path d="M962.963 206.895H958.406V208.873H962.963V206.895Z" fill="white" fill-opacity="0.5"/>
<path d="M946.916 212.44H942.359V214.42H946.916V212.44Z" fill="white" fill-opacity="0.5"/>
<path d="M954.947 212.44H950.391V214.42H954.947V212.44Z" fill="white" fill-opacity="0.5"/>
<path d="M962.963 212.44H958.406V214.42H962.963V212.44Z" fill="white" fill-opacity="0.5"/>
<path d="M946.916 217.987H942.359V219.965H946.916V217.987Z" fill="white" fill-opacity="0.5"/>
<path d="M954.947 217.987H950.391V219.965H954.947V217.987Z" fill="white" fill-opacity="0.5"/>
<path d="M962.963 217.987H958.406V219.965H962.963V217.987Z" fill="white" fill-opacity="0.5"/>
<path d="M946.916 223.532H942.359V225.511H946.916V223.532Z" fill="white" fill-opacity="0.5"/>
<path d="M954.947 223.532H950.391V225.511H954.947V223.532Z" fill="white" fill-opacity="0.5"/>
<path d="M962.963 223.532H958.406V225.511H962.963V223.532Z" fill="white" fill-opacity="0.5"/>
<path d="M946.916 229.078H942.359V231.056H946.916V229.078Z" fill="white" fill-opacity="0.5"/>
<path d="M954.947 229.078H950.391V231.056H954.947V229.078Z" fill="white" fill-opacity="0.5"/>
<path d="M962.963 229.078H958.406V231.056H962.963V229.078Z" fill="white" fill-opacity="0.5"/>
<path d="M946.916 234.624H942.359V236.603H946.916V234.624Z" fill="white" fill-opacity="0.5"/>
<path d="M954.947 234.624H950.391V236.603H954.947V234.624Z" fill="white" fill-opacity="0.5"/>
<path d="M962.963 234.624H958.406V236.603H962.963V234.624Z" fill="white" fill-opacity="0.5"/>
<path d="M946.916 240.17H942.359V242.149H946.916V240.17Z" fill="white" fill-opacity="0.5"/>
<path d="M954.947 240.17H950.391V242.149H954.947V240.17Z" fill="white" fill-opacity="0.5"/>
<path d="M962.963 240.17H958.406V242.149H962.963V240.17Z" fill="white" fill-opacity="0.5"/>
<path d="M1004.71 163.801H991.328V164.841H1004.71V163.801Z" fill="white" fill-opacity="0.5"/>
<path d="M1018.67 168.111H1005.3V169.151H1018.67V168.111Z" fill="white" fill-opacity="0.5"/>
<path d="M1004.71 174.353H991.328V175.394H1004.71V174.353Z" fill="white" fill-opacity="0.5"/>
<path d="M1018.67 178.664H1005.3V179.704H1018.67V178.664Z" fill="white" fill-opacity="0.5"/>
<path d="M1004.71 184.907H991.328V185.947H1004.71V184.907Z" fill="white" fill-opacity="0.5"/>
<path d="M1018.67 189.217H1005.3V190.257H1018.67V189.217Z" fill="white" fill-opacity="0.5"/>
<path d="M1004.71 195.459H991.328V196.5H1004.71V195.459Z" fill="white" fill-opacity="0.5"/>
<path d="M1018.67 199.77H1005.3V200.81H1018.67V199.77Z" fill="white" fill-opacity="0.5"/>
<path d="M1004.71 206.012H991.328V207.052H1004.71V206.012Z" fill="white" fill-opacity="0.5"/>
<path d="M1018.67 210.322H1005.3V211.363H1018.67V210.322Z" fill="white" fill-opacity="0.5"/>
<path d="M1004.71 216.565H991.328V217.605H1004.71V216.565Z" fill="white" fill-opacity="0.5"/>
<path d="M1018.67 220.876H1005.3V221.916H1018.67V220.876Z" fill="white" fill-opacity="0.5"/>
<path d="M1004.71 227.118H991.328V228.158H1004.71V227.118Z" fill="white" fill-opacity="0.5"/>
<path d="M1018.67 231.429H1005.3V232.469H1018.67V231.429Z" fill="white" fill-opacity="0.5"/>
<path d="M1004.71 237.671H991.328V238.711H1004.71V237.671Z" fill="white" fill-opacity="0.5"/>
<path d="M1018.67 241.981H1005.3V243.022H1018.67V241.981Z" fill="white" fill-opacity="0.5"/>
<path d="M1066.37 196.649H1049.43V197.243H1066.37V196.649Z" fill="white" fill-opacity="0.5"/>
<path d="M1078.55 200.216H1061.61V200.811H1078.55V200.216Z" fill="white" fill-opacity="0.5"/>
<path d="M1066.37 204.824H1049.43V205.419H1066.37V204.824Z" fill="white" fill-opacity="0.5"/>
<path d="M1078.55 208.391H1061.61V208.985H1078.55V208.391Z" fill="white" fill-opacity="0.5"/>
<path d="M1066.37 212.998H1049.43V213.593H1066.37V212.998Z" fill="white" fill-opacity="0.5"/>
<path d="M1078.55 216.565H1061.61V217.16H1078.55V216.565Z" fill="white" fill-opacity="0.5"/>
<path d="M1066.37 221.173H1049.43V221.768H1066.37V221.173Z" fill="white" fill-opacity="0.5"/>
<path d="M1078.55 224.74H1061.61V225.335H1078.55V224.74Z" fill="white" fill-opacity="0.5"/>
<path d="M1066.37 229.347H1049.43V229.942H1066.37V229.347Z" fill="white" fill-opacity="0.5"/>
<path d="M1078.55 232.915H1061.61V233.51H1078.55V232.915Z" fill="white" fill-opacity="0.5"/>
<path d="M1085.89 41.9688H1084.56V247.012H1085.89V41.9688Z" fill="white" fill-opacity="0.5"/>
<path d="M1092.79 41.9688H1091.45V247.012H1092.79V41.9688Z" fill="white" fill-opacity="0.5"/>
<path d="M1099.69 41.9688H1098.36V247.012H1099.69V41.9688Z" fill="white" fill-opacity="0.5"/>
<path d="M1106.58 41.9688H1105.3V247.012H1106.58V41.9688Z" fill="white" fill-opacity="0.5"/>
<path d="M1133.74 154.836H1132.55V246.107H1133.74V154.836Z" fill="white" fill-opacity="0.5"/>
<path d="M1142.06 154.836H1140.88V246.107H1142.06V154.836Z" fill="white" fill-opacity="0.5"/>
<path d="M1150.39 154.836H1149.2V246.107H1150.39V154.836Z" fill="white" fill-opacity="0.5"/>
<path d="M1209.95 111.483H1187.95V112.077H1209.95V111.483Z" fill="white" fill-opacity="0.5"/>
<path d="M1207.87 119.806H1185.88V120.4H1207.87V119.806Z" fill="white" fill-opacity="0.5"/>
<path d="M1209.06 133.48H1187.06V134.075H1209.06V133.48Z" fill="white" fill-opacity="0.5"/>
<path d="M1208.47 151.91H1186.47V152.505H1208.47V151.91Z" fill="white" fill-opacity="0.5"/>
<path d="M1199.85 173.61H1186.47V174.205H1199.85V173.61Z" fill="white" fill-opacity="0.5"/>
<path d="M1207.58 192.636H1194.2V193.23H1207.58V192.636Z" fill="white" fill-opacity="0.5"/>
<path d="M1200.44 214.039H1187.06V214.633H1200.44V214.039Z" fill="white" fill-opacity="0.5"/>
<path d="M1209.96 237.226H1196.58V237.82H1209.96V237.226Z" fill="white" fill-opacity="0.5"/>
<path d="M1445.08 23.041H1423.3V23.9422H1445.08V23.041Z" fill="white" fill-opacity="0.5"/>
<path d="M1447.37 35.8334H1431.44V36.6928H1447.37V35.8334Z" fill="white" fill-opacity="0.5"/>
<path d="M1445.08 51.0073H1423.3V51.8619H1445.08V51.0073Z" fill="white" fill-opacity="0.5"/>
<path d="M1448.13 63.7992H1431.44V64.6586H1448.13V63.7992Z" fill="white" fill-opacity="0.5"/>
<path d="M1445.08 78.9272H1423.3V79.8284H1445.08V78.9272Z" fill="white" fill-opacity="0.5"/>
<path d="M1448.89 91.7189H1431.44V92.5783H1448.89V91.7189Z" fill="white" fill-opacity="0.5"/>
<path d="M1445.08 106.894H1423.3V107.748H1445.08V106.894Z" fill="white" fill-opacity="0.5"/>
<path d="M1449.65 120.544H1431.44V119.685H1449.61L1449.65 120.544Z" fill="white" fill-opacity="0.5"/>
<path d="M1445.08 134.813H1423.3V135.714H1445.08V134.813Z" fill="white" fill-opacity="0.5"/>
<path d="M1450.42 148.464H1431.44V147.605H1450.37L1450.42 148.464Z" fill="white" fill-opacity="0.5"/>
<path d="M1445.08 162.779H1423.3V163.634H1445.08V162.779Z" fill="white" fill-opacity="0.5"/>
<path d="M1451.18 176.43H1431.44V175.571H1451.13L1451.18 176.43Z" fill="white" fill-opacity="0.5"/>
<path d="M1445.08 190.699H1423.3V191.6H1445.08V190.699Z" fill="white" fill-opacity="0.5"/>
<path d="M1451.89 203.49H1431.44V204.35H1451.89V203.49Z" fill="white" fill-opacity="0.5"/>
<path d="M1445.08 218.665H1423.3V219.519H1445.08V218.665Z" fill="white" fill-opacity="0.5"/>
<path d="M1452.65 231.457H1431.44V232.316H1452.65V231.457Z" fill="white" fill-opacity="0.5"/>
</g>
<defs>
<clipPath id="clip0_5357_46006">
<rect width="1541" height="242" fill="white"/>
</clipPath>
</defs>
</svg>
