<?xml version="1.0" encoding="UTF-8"?>
<!DOCTYPE svg PUBLIC "-//W3C//DTD SVG 1.1//EN" "http://www.w3.org/Graphics/SVG/1.1/DTD/svg11.dtd">
<svg xmlns="http://www.w3.org/2000/svg" version="1.1"
     width="48" height="48" viewBox="0 0 512 512"
     style="shape-rendering:geometricPrecision; text-rendering:geometricPrecision;
            image-rendering:optimizeQuality; fill-rule:evenodd; clip-rule:evenodd"
     xmlns:xlink="http://www.w3.org/1999/xlink">
  
  <g>
    <path style="opacity:0.997" fill="#fe6803" d="M 213.5,68.5 C 268.71,66.645 323.71,69.145 378.5,76C 410,82.1667 428.833,101 435,132.5C 444.991,214.5 444.991,296.5 435,378.5C 428.902,407.265 411.735,425.765 383.5,434C 299.885,444.958 216.218,445.291 132.5,435C 101,428.833 82.1667,410 76,378.5C 66.0083,296.169 66.0083,213.836 76,131.5C 85.4652,94.7203 109.299,75.5536 147.5,74C 169.619,71.7314 191.619,69.8981 213.5,68.5 Z M 225.5,120.5 C 267.027,119.21 308.361,121.376 349.5,127C 369.515,133.347 381.349,146.847 385,167.5C 392.333,226.166 392.333,284.833 385,343.5C 380.5,366.667 366.667,380.5 343.5,385C 284.833,392.333 226.167,392.333 167.5,385C 141.292,379.455 127.125,363.288 125,336.5C 118.763,279.794 119.096,223.127 126,166.5C 131.991,140.846 148.158,127.013 174.5,125C 191.625,123.159 208.625,121.659 225.5,120.5 Z"/>
  </g>
  
  <g>
    <path style="opacity:0.991" fill="#fd6a06" d="M 199.5,183.5 C 213.419,181.171 224.919,185.171 234,195.5C 240.818,215.366 233.985,227.533 213.5,232C 199.467,234.328 188.3,229.828 180,218.5C 174.563,200.031 181.063,188.365 199.5,183.5 Z"/>
  </g>
  
  <g>
    <path style="opacity:0.99" fill="#fb6d0a" d="M 285.5,193.5 C 294.506,193.334 303.506,193.5 312.5,194C 318.663,194.693 324.663,196.026 330.5,198C 331.482,205.747 331.815,213.58 331.5,221.5C 312.189,219.53 292.856,219.03 273.5,220C 272.353,212.58 272.187,205.08 273,197.5C 276.984,195.393 281.151,194.06 285.5,193.5 Z"/>
  </g>
  
  <g>
    <path style="opacity:0.989" fill="#fc6c0a" d="M 174.5,280.5 C 194.668,292.057 216.335,299.557 239.5,303C 274.037,306.199 306.037,298.699 335.5,280.5C 336.086,280.709 336.586,281.043 337,281.5C 337.667,286.5 337.667,291.5 337,296.5C 332.807,301.356 327.974,305.523 322.5,309C 270.853,340.113 221.686,336.613 175,298.5C 173.213,292.531 173.046,286.531 174.5,280.5 Z"/>
  </g>
</svg>