<?xml version="1.0" encoding="UTF-8"?>
<!DOCTYPE svg PUBLIC "-//W3C//DTD SVG 1.1//EN" "http://www.w3.org/Graphics/SVG/1.1/DTD/svg11.dtd">
<svg xmlns="http://www.w3.org/2000/svg" version="1.1" width="132px" height="48px" style="shape-rendering:geometricPrecision; text-rendering:geometricPrecision; image-rendering:optimizeQuality; fill-rule:evenodd; clip-rule:evenodd" xmlns:xlink="http://www.w3.org/1999/xlink">
<g><path style="opacity:0.844" fill="#fe6702" d="M 13.5,3.5 C 20.8409,3.33368 28.1742,3.50034 35.5,4C 38.0336,4.5163 40.2002,5.68297 42,7.5C 45.4615,18.4306 45.2948,29.2639 41.5,40C 40.1667,40.6667 38.8333,41.3333 37.5,42C 28.8333,42.6667 20.1667,42.6667 11.5,42C 9.71398,41.2155 8.21398,40.0488 7,38.5C 5,28.5 5,18.5 7,8.5C 8.96514,6.44965 11.1318,4.78299 13.5,3.5 Z M 15.5,10.5 C 21.5092,10.3338 27.5092,10.5005 33.5,11C 34.9308,11.4652 36.0975,12.2986 37,13.5C 37.6667,20.1667 37.6667,26.8333 37,33.5C 36.5,34 36,34.5 35.5,35C 27.9048,37.1382 20.4048,36.9715 13,34.5C 11,27.1667 11,19.8333 13,12.5C 13.9947,11.9341 14.828,11.2674 15.5,10.5 Z"/></g>
<g><path style="opacity:0.004" fill="#f6f7f6" d="M 112.5,15.5 C 111.833,14.1667 111.833,14.1667 112.5,15.5 Z"/></g>
<g><path style="opacity:0.667" fill="#fc6a05" d="M 17.5,15.5 C 21.7301,14.8313 23.5634,16.498 23,20.5C 17.4205,22.7516 15.5871,21.0849 17.5,15.5 Z"/></g>
<g><path style="opacity:0.553" fill="#fa6d09" d="M 26.5,16.5 C 29.6041,15.9711 31.9375,16.9711 33.5,19.5C 30.9135,20.48 28.2469,20.8134 25.5,20.5C 25.4326,19.0413 25.7659,17.7079 26.5,16.5 Z"/></g>
<g><path style="opacity:0.402" fill="#fbccae" d="M 51.5,19.5 C 51.5,18.5 51.5,17.5 51.5,16.5C 50.5,16.5 49.5,16.5 48.5,16.5C 48.5,21.5 48.5,26.5 48.5,31.5C 49.5,31.5 50.5,31.5 51.5,31.5C 51.5,29.8333 51.5,28.1667 51.5,26.5C 52.4614,28.2646 52.7947,30.2646 52.5,32.5C 50.8333,32.5 49.1667,32.5 47.5,32.5C 47.7877,26.7711 47.4544,21.1045 46.5,15.5C 48.2195,15.2537 50.2195,15.2537 52.5,15.5C 52.7678,17.099 52.4345,18.4324 51.5,19.5 Z"/></g>
<g><path style="opacity:0.553" fill="#faac7b" d="M 78.5,16.5 C 77.5,16.5 76.5,16.5 75.5,16.5C 74.8917,21.9443 75.5583,26.9443 77.5,31.5C 76.791,32.404 75.791,32.7373 74.5,32.5C 74.5,26.8333 74.5,21.1667 74.5,15.5C 76.1439,15.7135 77.6439,15.3802 79,14.5C 79.6917,15.4368 79.525,16.1034 78.5,16.5 Z"/></g>
<g><path style="opacity:1" fill="#ff7330" d="M 51.5,19.5 C 53.2755,19.7938 55.2755,19.9605 57.5,20C 58,20.5 58.5,21 59,21.5C 59.4986,25.1516 59.6653,28.8183 59.5,32.5C 58.1667,32.5 56.8333,32.5 55.5,32.5C 55.5,29.5 55.5,26.5 55.5,23.5C 53.3812,23.4677 52.0478,24.4677 51.5,26.5C 51.5,28.1667 51.5,29.8333 51.5,31.5C 50.5,31.5 49.5,31.5 48.5,31.5C 48.5,26.5 48.5,21.5 48.5,16.5C 49.5,16.5 50.5,16.5 51.5,16.5C 51.5,17.5 51.5,18.5 51.5,19.5 Z"/></g>
<g><path style="opacity:0.229" fill="#fad2b9" d="M 69.5,20.5 C 70.5676,19.5655 71.901,19.2322 73.5,19.5C 73.8168,23.7016 73.4834,27.7016 72.5,31.5C 72.5,27.8333 72.5,24.1667 72.5,20.5C 71.5,20.5 70.5,20.5 69.5,20.5 Z"/></g>
<g><path style="opacity:0.125" fill="#fcdbc6" d="M 122.5,24.5 C 122.5,23.1667 122.5,21.8333 122.5,20.5C 121.5,20.5 120.5,20.5 119.5,20.5C 119.5,24.1667 119.5,27.8333 119.5,31.5C 120.5,31.5 121.5,31.5 122.5,31.5C 121.432,32.4345 120.099,32.7678 118.5,32.5C 118.167,16.5 117.833,16.5 117.5,32.5C 115.833,32.5 114.167,32.5 112.5,32.5C 112.795,30.2646 112.461,28.2646 111.5,26.5C 111.5,25.8333 111.5,25.1667 111.5,24.5C 112.477,21.7131 112.81,18.7131 112.5,15.5C 116.187,14.5967 119.853,14.2633 123.5,14.5C 123.833,14.8333 124.167,15.1667 124.5,15.5C 123.911,18.6404 123.244,21.6404 122.5,24.5 Z"/></g>
<g><path style="opacity:1" fill="#fe4300" d="M 119.5,16.5 C 120.675,16.281 121.675,16.6143 122.5,17.5C 120.948,18.7979 119.948,18.4646 119.5,16.5 Z"/></g>
<g><path style="opacity:1" fill="#fe4000" d="M 113.5,16.5 C 114.675,16.281 115.675,16.6143 116.5,17.5C 114.948,18.7979 113.948,18.4646 113.5,16.5 Z"/></g>
<g><path style="opacity:0.525" fill="#ffb486" d="M 84.5,20.5 C 85.9063,20.9731 86.573,21.9731 86.5,23.5C 85.0937,23.0269 84.427,22.0269 84.5,20.5 Z"/></g>
<g><path style="opacity:1" fill="#ff6c28" d="M 122.5,24.5 C 123.417,27.0048 123.417,29.3382 122.5,31.5C 121.5,31.5 120.5,31.5 119.5,31.5C 119.5,27.8333 119.5,24.1667 119.5,20.5C 120.5,20.5 121.5,20.5 122.5,20.5C 122.5,21.8333 122.5,23.1667 122.5,24.5 Z"/></g>
<g><path style="opacity:1" fill="#ff7130" d="M 88.5,20.5 C 89.5,20.5 90.5,20.5 91.5,20.5C 91.5,24.1667 91.5,27.8333 91.5,31.5C 90.5,31.5 89.5,31.5 88.5,31.5C 88.4714,27.905 88.4714,24.2383 88.5,20.5 Z"/></g>
<g><path style="opacity:0.683" fill="#ff9654" d="M 104.5,20.5 C 104.44,21.0431 104.107,21.3764 103.5,21.5C 102.833,19.8333 102.167,18.1667 101.5,16.5C 101.167,19 100.833,21.5 100.5,24C 100.525,26.9294 101.191,29.4294 102.5,31.5C 101.791,32.404 100.791,32.7373 99.5,32.5C 99.5,26.8333 99.5,21.1667 99.5,15.5C 100.833,15.5 102.167,15.5 103.5,15.5C 103.216,17.4147 103.549,19.0813 104.5,20.5 Z"/></g>
<g><path style="opacity:0.998" fill="#ff6f2a" d="M 69.5,20.5 C 70.5,20.5 71.5,20.5 72.5,20.5C 72.5,24.1667 72.5,27.8333 72.5,31.5C 70.4531,31.8058 68.2865,32.1391 66,32.5C 61.1739,30.8483 59.5072,27.515 61,22.5C 63.4057,19.6892 66.239,19.0225 69.5,20.5 Z M 68.5,24.5 C 68.5674,25.9587 68.2341,27.2921 67.5,28.5C 64.872,27.7455 64.2054,26.2455 65.5,24C 66.7494,23.2599 67.7494,23.4265 68.5,24.5 Z"/></g>
<g><path style="opacity:1" fill="#ff702b" d="M 78.5,16.5 C 78.3433,17.8734 78.51,19.2068 79,20.5C 80.8278,19.2475 82.6612,19.2475 84.5,20.5C 84.427,22.0269 85.0937,23.0269 86.5,23.5C 87.3551,30.3067 84.3551,32.9733 77.5,31.5C 75.5583,26.9443 74.8917,21.9443 75.5,16.5C 76.5,16.5 77.5,16.5 78.5,16.5 Z M 79.5,23.5 C 80.5,23.5 81.5,23.5 82.5,23.5C 82.8841,25.6648 82.2174,27.3315 80.5,28.5C 78.2957,27.218 77.9624,25.5514 79.5,23.5 Z"/></g>
<g><path style="opacity:0.329" fill="#f7d1b8" d="M 97.5,31.5 C 96.4324,32.4345 95.099,32.7678 93.5,32.5C 93.5,26.8333 93.5,21.1667 93.5,15.5C 95.1667,15.5 96.8333,15.5 98.5,15.5C 98.8214,21.0262 98.4881,26.3595 97.5,31.5 Z"/></g>
<g><path style="opacity:1" fill="#fe5a01" d="M 97.5,31.5 C 96.5,31.5 95.5,31.5 94.5,31.5C 94.5,27.8333 94.5,24.1667 94.5,20.5C 95.5,20.5 96.5,20.5 97.5,20.5C 97.5,24.1667 97.5,27.8333 97.5,31.5 Z"/></g>
<g><path style="opacity:1" fill="#fe4100" d="M 94.5,16.5 C 95.675,16.281 96.675,16.6143 97.5,17.5C 95.9483,18.7979 94.9483,18.4646 94.5,16.5 Z"/></g>
<g><path style="opacity:1" fill="#ff6b25" d="M 104.5,20.5 C 108.122,19.0608 110.456,20.3942 111.5,24.5C 111.5,25.1667 111.5,25.8333 111.5,26.5C 110.428,31.5376 107.428,33.2042 102.5,31.5C 101.191,29.4294 100.525,26.9294 100.5,24C 100.833,21.5 101.167,19 101.5,16.5C 102.167,18.1667 102.833,19.8333 103.5,21.5C 104.107,21.3764 104.44,21.0431 104.5,20.5 Z M 104.5,23.5 C 105.5,23.5 106.5,23.5 107.5,23.5C 107.884,25.6648 107.217,27.3315 105.5,28.5C 103.296,27.218 102.962,25.5514 104.5,23.5 Z"/></g>
<g><path style="opacity:0.975" fill="#fe5c00" d="M 113.5,20.5 C 114.5,20.5 115.5,20.5 116.5,20.5C 116.5,24.1667 116.5,27.8333 116.5,31.5C 115.5,31.5 114.5,31.5 113.5,31.5C 113.5,27.8333 113.5,24.1667 113.5,20.5 Z"/></g>
<g><path style="opacity:0.644" fill="#fb6c09" d="M 15.5,25.5 C 21.1965,28.0249 26.8632,28.0249 32.5,25.5C 33.731,26.6507 33.731,27.8173 32.5,29C 28.0237,31.877 23.357,32.2104 18.5,30C 16.8588,28.871 15.8588,27.371 15.5,25.5 Z"/></g>
<g><path style="opacity:0.473" fill="#f7c19f" d="M 88.5,31.5 C 89.5,31.5 90.5,31.5 91.5,31.5C 91.5,27.8333 91.5,24.1667 91.5,20.5C 90.5,20.5 89.5,20.5 88.5,20.5C 87.1667,19.1667 87.1667,17.8333 88.5,16.5C 89.5676,15.5655 90.901,15.2322 92.5,15.5C 92.5,21.1667 92.5,26.8333 92.5,32.5C 90.901,32.7678 89.5676,32.4345 88.5,31.5 Z"/></g>
<g><path style="opacity:1" fill="#fe4300" d="M 88.5,16.5 C 89.675,16.281 90.675,16.6143 91.5,17.5C 89.9483,18.7979 88.9483,18.4646 88.5,16.5 Z"/></g>
<g><path style="opacity:0.788" fill="#ffb991" d="M 68.5,24.5 C 69.1239,24.9169 69.4573,25.5836 69.5,26.5C 69.2528,27.7133 68.5862,28.38 67.5,28.5C 68.2341,27.2921 68.5674,25.9587 68.5,24.5 Z"/></g>
</svg>
